# MagicaVoxel @ Ephtracy

# group
o 

# material
mtllib Zombie.mtl
usemtl palette

# normals
vn -1 0 0
vn 1 0 0
vn 0 0 1
vn 0 0 -1
vn 0 -1 0
vn 0 1 0

# texcoords
vt 0.130859 0.5
vt 0.134766 0.5
vt 0.166016 0.5
vt 0.259766 0.5
vt 0.462891 0.5
vt 0.466797 0.5

# verts
v -0.3 0.5 0.3
v -0.3 0.5 0.2
v -0.3 0.5 0
v -0.3 0.6 0.3
v -0.3 0.6 0.2
v -0.3 0.6 0.1
v -0.3 0.6 0
v -0.3 0.6 -0.2
v -0.3 0.7 -0.2
v -0.3 0.7 -0.3
v -0.3 1 0.1
v -0.3 1 0
v -0.3 1 -0.2
v -0.3 1 -0.3
v -0.3 1.1 0
v -0.3 1.1 -0.2
v -0.2 0 0
v -0.2 0 -0.1
v -0.2 0.2 0
v -0.2 0.2 -0.1
v -0.2 0.3 0.1
v -0.2 0.3 0
v -0.2 0.3 -0.1
v -0.2 0.3 -0.2
v -0.2 0.4 0.1
v -0.2 0.4 -0.2
v -0.2 0.5 0.1
v -0.2 0.5 0
v -0.2 0.6 0
v -0.2 0.6 -0.2
v -0.2 0.6 -0.3
v -0.2 0.7 -0.2
v -0.2 0.7 -0.3
v -0.2 1 0.1
v -0.2 1 0
v -0.2 1 -0.2
v -0.2 1 -0.3
v -0.2 1.1 0.1
v -0.2 1.1 0
v -0.2 1.1 -0.2
v -0.2 1.1 -0.3
v 0.1 0 0
v 0.1 0 -0.1
v 0.1 0.2 0
v 0.1 0.2 -0.1
v 0.1 0.3 0
v 0.1 0.3 -0.1
v 0.2 0.5 0.3
v 0.2 0.5 0.2
v 0.2 0.5 0.1
v 0.2 0.6 0.3
v 0.2 0.6 0.2
v 0.2 0.6 0.1
v -0.2 0.5 0.3
v -0.2 0.5 0.2
v -0.2 0.5 0.1
v -0.2 0.6 0.3
v -0.2 0.6 0.2
v -0.2 0.6 0.1
v -0.1 0 0
v -0.1 0 -0.1
v -0.1 0.2 0
v -0.1 0.2 -0.1
v -0.1 0.3 0
v -0.1 0.3 -0.1
v 0.2 0 0
v 0.2 0 -0.1
v 0.2 0.2 0
v 0.2 0.2 -0.1
v 0.2 0.3 0.1
v 0.2 0.3 0
v 0.2 0.3 -0.1
v 0.2 0.3 -0.2
v 0.2 0.4 0.1
v 0.2 0.4 -0.2
v 0.2 0.5 0.1
v 0.2 0.5 0
v 0.2 0.6 0
v 0.2 0.6 -0.2
v 0.2 0.6 -0.3
v 0.2 0.7 -0.2
v 0.2 0.7 -0.3
v 0.2 1 0.1
v 0.2 1 0
v 0.2 1 -0.2
v 0.2 1 -0.3
v 0.2 1.1 0.1
v 0.2 1.1 0
v 0.2 1.1 -0.2
v 0.2 1.1 -0.3
v 0.3 0.5 0.3
v 0.3 0.5 0.2
v 0.3 0.5 0
v 0.3 0.6 0.3
v 0.3 0.6 0.2
v 0.3 0.6 0.1
v 0.3 0.6 0
v 0.3 0.6 -0.2
v 0.3 0.7 -0.2
v 0.3 0.7 -0.3
v 0.3 1 0.1
v 0.3 1 0
v 0.3 1 -0.2
v 0.3 1 -0.3
v 0.3 1.1 0
v 0.3 1.1 -0.2
v -0.3 0.5 0.3
v -0.3 0.6 0.3
v -0.2 0.5 0.3
v -0.2 0.6 0.3
v 0.2 0.5 0.3
v 0.2 0.6 0.3
v 0.3 0.5 0.3
v 0.3 0.6 0.3
v -0.3 0.6 0.1
v -0.3 1 0.1
v -0.2 0.3 0.1
v -0.2 0.4 0.1
v -0.2 0.5 0.1
v -0.2 0.6 0.1
v -0.2 0.7 0.1
v -0.2 0.9 0.1
v -0.2 1 0.1
v -0.2 1.1 0.1
v -0.1 0.5 0.1
v -0.1 0.6 0.1
v -0.1 0.7 0.1
v -0.1 0.9 0.1
v 0.1 0.5 0.1
v 0.1 0.6 0.1
v 0.1 0.7 0.1
v 0.1 0.9 0.1
v 0.1 1 0.1
v 0.1 1.1 0.1
v 0.2 0.3 0.1
v 0.2 0.4 0.1
v 0.2 0.5 0.1
v 0.2 0.6 0.1
v 0.2 0.7 0.1
v 0.2 0.9 0.1
v 0.2 1 0.1
v 0.2 1.1 0.1
v 0.3 0.6 0.1
v 0.3 1 0.1
v -0.3 1 0
v -0.3 1.1 0
v -0.2 0 0
v -0.2 0.2 0
v -0.2 0.3 0
v -0.2 1 0
v -0.2 1.1 0
v -0.1 0 0
v -0.1 0.2 0
v -0.1 0.3 0
v 0.1 0 0
v 0.1 0.2 0
v 0.1 0.3 0
v 0.2 0 0
v 0.2 0.2 0
v 0.2 0.3 0
v 0.2 1 0
v 0.2 1.1 0
v 0.3 1 0
v 0.3 1.1 0
v -0.3 0.5 0
v -0.3 0.6 0
v -0.2 0.5 0
v -0.2 0.6 0
v 0.2 0.5 0
v 0.2 0.6 0
v 0.3 0.5 0
v 0.3 0.6 0
v -0.2 0 -0.1
v -0.2 0.2 -0.1
v -0.2 0.3 -0.1
v -0.1 0 -0.1
v -0.1 0.2 -0.1
v -0.1 0.3 -0.1
v 0.1 0 -0.1
v 0.1 0.2 -0.1
v 0.1 0.3 -0.1
v 0.2 0 -0.1
v 0.2 0.2 -0.1
v 0.2 0.3 -0.1
v -0.3 0.6 -0.2
v -0.3 0.7 -0.2
v -0.3 1 -0.2
v -0.3 1.1 -0.2
v -0.2 0.3 -0.2
v -0.2 0.4 -0.2
v -0.2 0.6 -0.2
v -0.2 0.7 -0.2
v -0.2 1 -0.2
v -0.2 1.1 -0.2
v 0.2 0.3 -0.2
v 0.2 0.4 -0.2
v 0.2 0.6 -0.2
v 0.2 0.7 -0.2
v 0.2 1 -0.2
v 0.2 1.1 -0.2
v 0.3 0.6 -0.2
v 0.3 0.7 -0.2
v 0.3 1 -0.2
v 0.3 1.1 -0.2
v -0.3 0.7 -0.3
v -0.3 1 -0.3
v -0.2 0.6 -0.3
v -0.2 0.7 -0.3
v -0.2 1 -0.3
v -0.2 1.1 -0.3
v 0.1 1 -0.3
v 0.1 1.1 -0.3
v 0.2 0.6 -0.3
v 0.2 0.7 -0.3
v 0.2 1 -0.3
v 0.2 1.1 -0.3
v 0.3 0.7 -0.3
v 0.3 1 -0.3
v -0.2 0 0
v -0.1 0 0
v 0.1 0 0
v 0.2 0 0
v -0.2 0 -0.1
v -0.1 0 -0.1
v 0.1 0 -0.1
v 0.2 0 -0.1
v -0.2 0.3 0.1
v 0.2 0.3 0.1
v -0.2 0.3 0
v -0.1 0.3 0
v 0.1 0.3 0
v 0.2 0.3 0
v -0.2 0.3 -0.1
v -0.1 0.3 -0.1
v 0.1 0.3 -0.1
v 0.2 0.3 -0.1
v -0.2 0.3 -0.2
v 0.2 0.3 -0.2
v -0.3 0.5 0.3
v -0.2 0.5 0.3
v 0.2 0.5 0.3
v 0.3 0.5 0.3
v -0.3 0.5 0.2
v -0.2 0.5 0.2
v 0.2 0.5 0.2
v 0.3 0.5 0.2
v -0.2 0.5 0.1
v 0.2 0.5 0.1
v -0.3 0.5 0
v -0.2 0.5 0
v 0.2 0.5 0
v 0.3 0.5 0
v -0.3 0.6 0
v -0.2 0.6 0
v 0.2 0.6 0
v 0.3 0.6 0
v -0.3 0.6 -0.2
v -0.2 0.6 -0.2
v 0.2 0.6 -0.2
v 0.3 0.6 -0.2
v -0.2 0.6 -0.3
v 0.2 0.6 -0.3
v -0.3 0.7 -0.2
v -0.2 0.7 -0.2
v 0.2 0.7 -0.2
v 0.3 0.7 -0.2
v -0.3 0.7 -0.3
v -0.2 0.7 -0.3
v 0.2 0.7 -0.3
v 0.3 0.7 -0.3
v -0.3 0.6 0.3
v -0.2 0.6 0.3
v 0.2 0.6 0.3
v 0.3 0.6 0.3
v -0.3 0.6 0.2
v -0.2 0.6 0.2
v 0.2 0.6 0.2
v 0.3 0.6 0.2
v -0.3 0.6 0.1
v -0.2 0.6 0.1
v 0.2 0.6 0.1
v 0.3 0.6 0.1
v -0.3 1 0.1
v -0.2 1 0.1
v 0.2 1 0.1
v 0.3 1 0.1
v -0.3 1 0
v -0.2 1 0
v 0.2 1 0
v 0.3 1 0
v -0.3 1 -0.2
v -0.2 1 -0.2
v 0.2 1 -0.2
v 0.3 1 -0.2
v -0.3 1 -0.3
v -0.2 1 -0.3
v 0.2 1 -0.3
v 0.3 1 -0.3
v -0.2 1.1 0.1
v 0.1 1.1 0.1
v 0.2 1.1 0.1
v -0.3 1.1 0
v -0.2 1.1 0
v 0 1.1 0
v 0.1 1.1 0
v 0.2 1.1 0
v 0.3 1.1 0
v -0.3 1.1 -0.2
v -0.2 1.1 -0.2
v 0 1.1 -0.2
v 0.1 1.1 -0.2
v 0.2 1.1 -0.2
v 0.3 1.1 -0.2
v -0.2 1.1 -0.3
v 0.1 1.1 -0.3
v 0.2 1.1 -0.3

# faces
f 4/3/1 2/3/1 1/3/1
f 5/1/1 3/1/1 2/1/1
f 5/3/1 2/3/1 4/3/1
f 6/1/1 3/1/1 5/1/1
f 7/1/1 3/1/1 6/1/1
f 9/3/1 8/3/1 7/3/1
f 9/3/1 7/3/1 6/3/1
f 11/3/1 9/3/1 6/3/1
f 11/3/1 10/3/1 9/3/1
f 12/3/1 10/3/1 11/3/1
f 13/3/1 10/3/1 12/3/1
f 14/3/1 10/3/1 13/3/1
f 15/3/1 13/3/1 12/3/1
f 16/3/1 13/3/1 15/3/1
f 19/3/1 18/3/1 17/3/1
f 20/3/1 18/3/1 19/3/1
f 22/2/1 20/2/1 19/2/1
f 23/2/1 20/2/1 22/2/1
f 25/2/1 23/2/1 22/2/1
f 25/2/1 24/2/1 23/2/1
f 25/2/1 22/2/1 21/2/1
f 26/2/1 24/2/1 25/2/1
f 27/1/1 26/1/1 25/1/1
f 28/1/1 26/1/1 27/1/1
f 29/1/1 26/1/1 28/1/1
f 30/1/1 26/1/1 29/1/1
f 32/3/1 31/3/1 30/3/1
f 33/3/1 31/3/1 32/3/1
f 38/3/1 35/3/1 34/3/1
f 39/3/1 35/3/1 38/3/1
f 40/3/1 37/3/1 36/3/1
f 41/3/1 37/3/1 40/3/1
f 44/3/1 43/3/1 42/3/1
f 45/3/1 43/3/1 44/3/1
f 46/2/1 45/2/1 44/2/1
f 47/2/1 45/2/1 46/2/1
f 51/3/1 49/3/1 48/3/1
f 52/1/1 50/1/1 49/1/1
f 52/3/1 49/3/1 51/3/1
f 53/1/1 50/1/1 52/1/1
f 54/3/2 55/3/2 57/3/2
f 55/1/2 56/1/2 58/1/2
f 57/3/2 55/3/2 58/3/2
f 58/1/2 56/1/2 59/1/2
f 60/3/2 61/3/2 62/3/2
f 62/3/2 61/3/2 63/3/2
f 62/2/2 63/2/2 64/2/2
f 64/2/2 63/2/2 65/2/2
f 66/3/2 67/3/2 68/3/2
f 68/3/2 67/3/2 69/3/2
f 68/2/2 69/2/2 71/2/2
f 71/2/2 69/2/2 72/2/2
f 71/2/2 72/2/2 74/2/2
f 72/2/2 73/2/2 74/2/2
f 70/2/2 71/2/2 74/2/2
f 74/2/2 73/2/2 75/2/2
f 74/1/2 75/1/2 76/1/2
f 76/1/2 75/1/2 77/1/2
f 77/1/2 75/1/2 78/1/2
f 78/1/2 75/1/2 79/1/2
f 79/3/2 80/3/2 81/3/2
f 81/3/2 80/3/2 82/3/2
f 83/4/2 84/4/2 87/4/2
f 87/4/2 84/4/2 88/4/2
f 85/4/2 86/4/2 89/4/2
f 89/4/2 86/4/2 90/4/2
f 91/3/2 92/3/2 94/3/2
f 92/1/2 93/1/2 95/1/2
f 94/3/2 92/3/2 95/3/2
f 95/1/2 93/1/2 96/1/2
f 96/1/2 93/1/2 97/1/2
f 97/3/2 98/3/2 99/3/2
f 96/3/2 97/3/2 99/3/2
f 96/3/2 99/3/2 101/3/2
f 99/3/2 100/3/2 101/3/2
f 101/3/2 100/3/2 102/3/2
f 102/3/2 100/3/2 103/3/2
f 103/3/2 100/3/2 104/3/2
f 102/4/2 103/4/2 105/4/2
f 105/4/2 103/4/2 106/4/2
f 109/3/3 108/3/3 107/3/3
f 110/3/3 108/3/3 109/3/3
f 113/3/3 112/3/3 111/3/3
f 114/3/3 112/3/3 113/3/3
f 120/3/3 116/3/3 115/3/3
f 121/3/3 116/3/3 120/3/3
f 122/3/3 116/3/3 121/3/3
f 123/3/3 116/3/3 122/3/3
f 125/1/3 119/1/3 118/1/3
f 125/1/3 120/1/3 119/1/3
f 126/3/3 121/3/3 120/3/3
f 126/1/3 120/1/3 125/1/3
f 127/5/3 122/5/3 121/5/3
f 127/3/3 121/3/3 126/3/3
f 128/3/3 124/3/3 123/3/3
f 128/5/3 122/5/3 127/5/3
f 128/3/3 123/3/3 122/3/3
f 129/3/3 126/3/3 125/3/3
f 129/1/3 125/1/3 118/1/3
f 130/6/3 127/6/3 126/6/3
f 130/3/3 126/3/3 129/3/3
f 131/3/3 128/3/3 127/3/3
f 131/6/3 127/6/3 130/6/3
f 132/3/3 124/3/3 128/3/3
f 132/3/3 128/3/3 131/3/3
f 133/3/3 124/3/3 132/3/3
f 134/3/3 124/3/3 133/3/3
f 135/2/3 118/2/3 117/2/3
f 136/1/3 129/1/3 118/1/3
f 136/2/3 118/2/3 135/2/3
f 136/1/3 130/1/3 129/1/3
f 137/1/3 130/1/3 136/1/3
f 138/3/3 131/3/3 130/3/3
f 138/1/3 130/1/3 137/1/3
f 139/5/3 132/5/3 131/5/3
f 139/3/3 131/3/3 138/3/3
f 140/3/3 133/3/3 132/3/3
f 140/5/3 132/5/3 139/5/3
f 141/4/3 134/4/3 133/4/3
f 141/3/3 133/3/3 140/3/3
f 142/4/3 134/4/3 141/4/3
f 143/3/3 140/3/3 139/3/3
f 143/3/3 141/3/3 140/3/3
f 143/3/3 139/3/3 138/3/3
f 144/3/3 141/3/3 143/3/3
f 150/3/3 146/3/3 145/3/3
f 151/3/3 146/3/3 150/3/3
f 152/3/3 148/3/3 147/3/3
f 153/2/3 149/2/3 148/2/3
f 153/3/3 148/3/3 152/3/3
f 154/2/3 149/2/3 153/2/3
f 158/3/3 156/3/3 155/3/3
f 159/2/3 157/2/3 156/2/3
f 159/3/3 156/3/3 158/3/3
f 160/2/3 157/2/3 159/2/3
f 163/4/3 162/4/3 161/4/3
f 164/4/3 162/4/3 163/4/3
f 165/1/4 166/1/4 167/1/4
f 167/1/4 166/1/4 168/1/4
f 169/1/4 170/1/4 171/1/4
f 171/1/4 170/1/4 172/1/4
f 173/3/4 174/3/4 176/3/4
f 174/2/4 175/2/4 177/2/4
f 176/3/4 174/3/4 177/3/4
f 177/2/4 175/2/4 178/2/4
f 179/3/4 180/3/4 182/3/4
f 180/2/4 181/2/4 183/2/4
f 182/3/4 180/3/4 183/3/4
f 183/2/4 181/2/4 184/2/4
f 185/3/4 186/3/4 191/3/4
f 191/3/4 186/3/4 192/3/4
f 187/3/4 188/3/4 193/3/4
f 193/3/4 188/3/4 194/3/4
f 189/2/4 190/2/4 195/2/4
f 190/1/4 191/1/4 196/1/4
f 195/2/4 190/2/4 196/2/4
f 196/1/4 191/1/4 197/1/4
f 197/3/4 198/3/4 201/3/4
f 201/3/4 198/3/4 202/3/4
f 199/4/4 200/4/4 203/4/4
f 203/4/4 200/4/4 204/4/4
f 205/3/4 206/3/4 208/3/4
f 208/3/4 206/3/4 209/3/4
f 207/3/4 208/3/4 211/3/4
f 209/3/4 210/3/4 211/3/4
f 208/3/4 209/3/4 211/3/4
f 211/3/4 210/3/4 212/3/4
f 207/3/4 211/3/4 213/3/4
f 213/3/4 211/3/4 214/3/4
f 211/4/4 212/4/4 215/4/4
f 214/3/4 211/3/4 215/3/4
f 215/4/4 212/4/4 216/4/4
f 214/3/4 215/3/4 217/3/4
f 217/3/4 215/3/4 218/3/4
f 223/3/5 220/3/5 219/3/5
f 224/3/5 220/3/5 223/3/5
f 225/3/5 222/3/5 221/3/5
f 226/3/5 222/3/5 225/3/5
f 229/2/5 228/2/5 227/2/5
f 230/2/5 228/2/5 229/2/5
f 231/2/5 228/2/5 230/2/5
f 232/2/5 228/2/5 231/2/5
f 234/2/5 231/2/5 230/2/5
f 235/2/5 231/2/5 234/2/5
f 237/2/5 234/2/5 233/2/5
f 237/2/5 236/2/5 235/2/5
f 237/2/5 235/2/5 234/2/5
f 238/2/5 236/2/5 237/2/5
f 243/3/5 240/3/5 239/3/5
f 244/3/5 240/3/5 243/3/5
f 245/3/5 242/3/5 241/3/5
f 246/3/5 242/3/5 245/3/5
f 247/1/5 244/1/5 243/1/5
f 248/1/5 246/1/5 245/1/5
f 249/1/5 247/1/5 243/1/5
f 250/1/5 247/1/5 249/1/5
f 251/1/5 246/1/5 248/1/5
f 252/1/5 246/1/5 251/1/5
f 257/3/5 254/3/5 253/3/5
f 258/3/5 254/3/5 257/3/5
f 259/3/5 256/3/5 255/3/5
f 260/3/5 256/3/5 259/3/5
f 261/3/5 259/3/5 258/3/5
f 262/3/5 259/3/5 261/3/5
f 267/3/5 264/3/5 263/3/5
f 268/3/5 264/3/5 267/3/5
f 269/3/5 266/3/5 265/3/5
f 270/3/5 266/3/5 269/3/5
f 271/3/6 272/3/6 275/3/6
f 275/3/6 272/3/6 276/3/6
f 273/3/6 274/3/6 277/3/6
f 277/3/6 274/3/6 278/3/6
f 275/1/6 276/1/6 279/1/6
f 279/1/6 276/1/6 280/1/6
f 277/1/6 278/1/6 281/1/6
f 281/1/6 278/1/6 282/1/6
f 283/3/6 284/3/6 287/3/6
f 287/3/6 284/3/6 288/3/6
f 285/3/6 286/3/6 289/3/6
f 289/3/6 286/3/6 290/3/6
f 291/3/6 292/3/6 295/3/6
f 295/3/6 292/3/6 296/3/6
f 293/3/6 294/3/6 297/3/6
f 297/3/6 294/3/6 298/3/6
f 299/3/6 300/3/6 303/3/6
f 303/3/6 300/3/6 304/3/6
f 300/4/6 301/4/6 305/4/6
f 304/3/6 300/3/6 305/3/6
f 305/4/6 301/4/6 306/4/6
f 303/3/6 304/3/6 308/3/6
f 302/3/6 303/3/6 308/3/6
f 308/3/6 304/3/6 309/3/6
f 306/4/6 307/4/6 310/4/6
f 309/3/6 304/3/6 310/3/6
f 305/4/6 306/4/6 310/4/6
f 304/4/6 305/4/6 310/4/6
f 310/4/6 307/4/6 311/4/6
f 311/4/6 307/4/6 312/4/6
f 312/4/6 307/4/6 313/4/6
f 309/3/6 310/3/6 314/3/6
f 310/3/6 311/3/6 314/3/6
f 311/4/6 312/4/6 315/4/6
f 314/3/6 311/3/6 315/3/6
f 315/4/6 312/4/6 316/4/6
