# MagicaVoxel @ Ephtracy

# group
o 

# material
mtllib Zombie.mtl
usemtl palette

# normals
vn -1 0 0
vn 1 0 0
vn 0 0 1
vn 0 0 -1
vn 0 -1 0
vn 0 1 0

# texcoords
vt 0.0253906 0.5
vt 0.0292969 0.5
vt 0.0996094 0.5
vt 0.224609 0.5

# verts
v -0.3 0.5 0.3
v -0.3 0.5 0
v -0.3 0.6 0.3
v -0.3 0.6 0.1
v -0.3 0.6 0
v -0.3 0.6 -0.2
v -0.3 0.7 -0.2
v -0.3 0.7 -0.3
v -0.3 1 0.1
v -0.3 1 0
v -0.3 1 -0.2
v -0.3 1 -0.3
v -0.3 1.1 0
v -0.3 1.1 -0.2
v -0.2 0 0
v -0.2 0 -0.1
v -0.2 0.3 0.1
v -0.2 0.3 0
v -0.2 0.3 -0.1
v -0.2 0.3 -0.2
v -0.2 0.5 0.1
v -0.2 0.5 0
v -0.2 0.6 0
v -0.2 0.6 -0.2
v -0.2 0.6 -0.3
v -0.2 0.7 -0.2
v -0.2 0.7 -0.3
v -0.2 1 0.1
v -0.2 1 0
v -0.2 1 -0.2
v -0.2 1 -0.3
v -0.2 1.1 0.1
v -0.2 1.1 0
v -0.2 1.1 -0.2
v -0.2 1.1 -0.3
v 0.1 0 0
v 0.1 0 -0.1
v 0.1 0.3 0
v 0.1 0.3 -0.1
v 0.2 0.5 0.3
v 0.2 0.5 0.1
v 0.2 0.6 0.3
v 0.2 0.6 0.1
v -0.2 0.5 0.3
v -0.2 0.5 0.1
v -0.2 0.6 0.3
v -0.2 0.6 0.1
v -0.1 0 0
v -0.1 0 -0.1
v -0.1 0.3 0
v -0.1 0.3 -0.1
v 0.2 0 0
v 0.2 0 -0.1
v 0.2 0.3 0.1
v 0.2 0.3 0
v 0.2 0.3 -0.1
v 0.2 0.3 -0.2
v 0.2 0.5 0.1
v 0.2 0.5 0
v 0.2 0.6 0
v 0.2 0.6 -0.2
v 0.2 0.6 -0.3
v 0.2 0.7 -0.2
v 0.2 0.7 -0.3
v 0.2 1 0.1
v 0.2 1 0
v 0.2 1 -0.2
v 0.2 1 -0.3
v 0.2 1.1 0.1
v 0.2 1.1 0
v 0.2 1.1 -0.2
v 0.2 1.1 -0.3
v 0.3 0.5 0.3
v 0.3 0.5 0
v 0.3 0.6 0.3
v 0.3 0.6 0.1
v 0.3 0.6 0
v 0.3 0.6 -0.2
v 0.3 0.7 -0.2
v 0.3 0.7 -0.3
v 0.3 0.9 0
v 0.3 0.9 -0.2
v 0.3 1 0.1
v 0.3 1 0
v 0.3 1 -0.2
v 0.3 1 -0.3
v 0.3 1.1 0
v 0.3 1.1 -0.2
v -0.3 0.5 0.3
v -0.3 0.6 0.3
v -0.2 0.5 0.3
v -0.2 0.6 0.3
v 0.2 0.5 0.3
v 0.2 0.6 0.3
v 0.3 0.5 0.3
v 0.3 0.6 0.3
v -0.3 0.6 0.1
v -0.3 1 0.1
v -0.2 0.3 0.1
v -0.2 0.5 0.1
v -0.2 0.6 0.1
v -0.2 0.7 0.1
v -0.2 0.9 0.1
v -0.2 1 0.1
v -0.2 1.1 0.1
v -0.1 0.6 0.1
v -0.1 0.7 0.1
v -0.1 0.9 0.1
v 0 1 0.1
v 0 1.1 0.1
v 0.1 0.6 0.1
v 0.1 0.7 0.1
v 0.1 0.9 0.1
v 0.2 0.3 0.1
v 0.2 0.5 0.1
v 0.2 0.6 0.1
v 0.2 0.7 0.1
v 0.2 0.9 0.1
v 0.2 1 0.1
v 0.2 1.1 0.1
v 0.3 0.6 0.1
v 0.3 1 0.1
v -0.3 1 0
v -0.3 1.1 0
v -0.2 0 0
v -0.2 0.3 0
v -0.2 1 0
v -0.2 1.1 0
v -0.1 0 0
v -0.1 0.3 0
v 0.1 0 0
v 0.1 0.3 0
v 0.2 0 0
v 0.2 0.3 0
v 0.2 1 0
v 0.2 1.1 0
v 0.3 1 0
v 0.3 1.1 0
v -0.3 0.5 0
v -0.3 0.6 0
v -0.2 0.5 0
v -0.2 0.6 0
v 0.2 0.5 0
v 0.2 0.6 0
v 0.3 0.5 0
v 0.3 0.6 0
v -0.2 0 -0.1
v -0.2 0.3 -0.1
v -0.1 0 -0.1
v -0.1 0.3 -0.1
v 0.1 0 -0.1
v 0.1 0.3 -0.1
v 0.2 0 -0.1
v 0.2 0.3 -0.1
v -0.3 0.6 -0.2
v -0.3 0.7 -0.2
v -0.3 1 -0.2
v -0.3 1.1 -0.2
v -0.2 0.3 -0.2
v -0.2 0.6 -0.2
v -0.2 0.7 -0.2
v -0.2 1 -0.2
v -0.2 1.1 -0.2
v 0.2 0.3 -0.2
v 0.2 0.6 -0.2
v 0.2 0.7 -0.2
v 0.2 1 -0.2
v 0.2 1.1 -0.2
v 0.3 0.6 -0.2
v 0.3 0.7 -0.2
v 0.3 1 -0.2
v 0.3 1.1 -0.2
v -0.3 0.7 -0.3
v -0.3 1 -0.3
v -0.2 0.6 -0.3
v -0.2 0.7 -0.3
v -0.2 1 -0.3
v -0.2 1.1 -0.3
v 0 1 -0.3
v 0 1.1 -0.3
v 0.2 0.6 -0.3
v 0.2 0.7 -0.3
v 0.2 1 -0.3
v 0.2 1.1 -0.3
v 0.3 0.7 -0.3
v 0.3 1 -0.3
v -0.2 0 0
v -0.1 0 0
v 0.1 0 0
v 0.2 0 0
v -0.2 0 -0.1
v -0.1 0 -0.1
v 0.1 0 -0.1
v 0.2 0 -0.1
v -0.2 0.3 0.1
v 0.2 0.3 0.1
v -0.2 0.3 0
v -0.1 0.3 0
v 0.1 0.3 0
v 0.2 0.3 0
v -0.2 0.3 -0.1
v -0.1 0.3 -0.1
v 0.1 0.3 -0.1
v 0.2 0.3 -0.1
v -0.2 0.3 -0.2
v 0.2 0.3 -0.2
v -0.3 0.5 0.3
v -0.2 0.5 0.3
v 0.2 0.5 0.3
v 0.3 0.5 0.3
v -0.2 0.5 0.1
v 0.2 0.5 0.1
v -0.3 0.5 0
v -0.2 0.5 0
v 0.2 0.5 0
v 0.3 0.5 0
v -0.3 0.6 0
v -0.2 0.6 0
v 0.2 0.6 0
v 0.3 0.6 0
v -0.3 0.6 -0.2
v -0.2 0.6 -0.2
v 0.2 0.6 -0.2
v 0.3 0.6 -0.2
v -0.2 0.6 -0.3
v 0.2 0.6 -0.3
v -0.3 0.7 -0.2
v -0.2 0.7 -0.2
v 0.2 0.7 -0.2
v 0.3 0.7 -0.2
v -0.3 0.7 -0.3
v -0.2 0.7 -0.3
v 0.2 0.7 -0.3
v 0.3 0.7 -0.3
v -0.3 0.6 0.3
v -0.2 0.6 0.3
v 0.2 0.6 0.3
v 0.3 0.6 0.3
v -0.3 0.6 0.1
v -0.2 0.6 0.1
v 0.2 0.6 0.1
v 0.3 0.6 0.1
v -0.3 1 0.1
v -0.2 1 0.1
v 0.2 1 0.1
v 0.3 1 0.1
v -0.3 1 0
v -0.2 1 0
v 0.2 1 0
v 0.3 1 0
v -0.3 1 -0.2
v -0.2 1 -0.2
v 0.2 1 -0.2
v 0.3 1 -0.2
v -0.3 1 -0.3
v -0.2 1 -0.3
v 0.2 1 -0.3
v 0.3 1 -0.3
v -0.2 1.1 0.1
v 0 1.1 0.1
v 0.2 1.1 0.1
v -0.3 1.1 0
v -0.2 1.1 0
v -0.1 1.1 0
v 0 1.1 0
v 0.2 1.1 0
v 0.3 1.1 0
v -0.3 1.1 -0.2
v -0.2 1.1 -0.2
v -0.1 1.1 -0.2
v 0 1.1 -0.2
v 0.2 1.1 -0.2
v 0.3 1.1 -0.2
v -0.2 1.1 -0.3
v 0 1.1 -0.3
v 0.2 1.1 -0.3

# faces
f 3/3/1 2/3/1 1/3/1
f 4/3/1 2/3/1 3/3/1
f 5/3/1 2/3/1 4/3/1
f 7/3/1 6/3/1 5/3/1
f 7/3/1 5/3/1 4/3/1
f 9/3/1 7/3/1 4/3/1
f 9/3/1 8/3/1 7/3/1
f 10/3/1 8/3/1 9/3/1
f 11/3/1 8/3/1 10/3/1
f 12/3/1 8/3/1 11/3/1
f 13/3/1 11/3/1 10/3/1
f 14/3/1 11/3/1 13/3/1
f 18/3/1 16/3/1 15/3/1
f 19/3/1 16/3/1 18/3/1
f 21/3/1 18/3/1 17/3/1
f 21/3/1 20/3/1 19/3/1
f 21/3/1 19/3/1 18/3/1
f 22/3/1 20/3/1 21/3/1
f 23/3/1 20/3/1 22/3/1
f 24/3/1 20/3/1 23/3/1
f 26/3/1 25/3/1 24/3/1
f 27/3/1 25/3/1 26/3/1
f 32/3/1 29/3/1 28/3/1
f 33/3/1 29/3/1 32/3/1
f 34/3/1 31/3/1 30/3/1
f 35/3/1 31/3/1 34/3/1
f 38/3/1 37/3/1 36/3/1
f 39/3/1 37/3/1 38/3/1
f 42/3/1 41/3/1 40/3/1
f 43/3/1 41/3/1 42/3/1
f 44/3/2 45/3/2 46/3/2
f 46/3/2 45/3/2 47/3/2
f 48/3/2 49/3/2 50/3/2
f 50/3/2 49/3/2 51/3/2
f 52/3/2 53/3/2 55/3/2
f 55/3/2 53/3/2 56/3/2
f 54/3/2 55/3/2 58/3/2
f 56/3/2 57/3/2 58/3/2
f 55/3/2 56/3/2 58/3/2
f 58/3/2 57/3/2 59/3/2
f 59/3/2 57/3/2 60/3/2
f 60/3/2 57/3/2 61/3/2
f 61/3/2 62/3/2 63/3/2
f 63/3/2 62/3/2 64/3/2
f 65/4/2 66/4/2 69/4/2
f 69/4/2 66/4/2 70/4/2
f 67/4/2 68/4/2 71/4/2
f 71/4/2 68/4/2 72/4/2
f 73/3/2 74/3/2 75/3/2
f 75/3/2 74/3/2 76/3/2
f 76/3/2 74/3/2 77/3/2
f 77/3/2 78/3/2 79/3/2
f 76/3/2 77/3/2 79/3/2
f 76/3/2 79/3/2 81/3/2
f 79/3/2 80/3/2 81/3/2
f 81/3/2 80/3/2 82/3/2
f 76/3/2 81/3/2 83/3/2
f 81/4/2 82/4/2 84/4/2
f 83/3/2 81/3/2 84/3/2
f 82/3/2 80/3/2 85/3/2
f 84/4/2 82/4/2 85/4/2
f 85/3/2 80/3/2 86/3/2
f 84/4/2 85/4/2 87/4/2
f 87/4/2 85/4/2 88/4/2
f 91/3/3 90/3/3 89/3/3
f 92/3/3 90/3/3 91/3/3
f 95/3/3 94/3/3 93/3/3
f 96/3/3 94/3/3 95/3/3
f 101/3/3 98/3/3 97/3/3
f 102/3/3 98/3/3 101/3/3
f 103/3/3 98/3/3 102/3/3
f 104/3/3 98/3/3 103/3/3
f 106/3/3 100/3/3 99/3/3
f 106/3/3 101/3/3 100/3/3
f 106/3/3 102/3/3 101/3/3
f 107/2/3 103/2/3 102/2/3
f 107/3/3 102/3/3 106/3/3
f 108/3/3 105/3/3 104/3/3
f 108/2/3 103/2/3 107/2/3
f 108/3/3 104/3/3 103/3/3
f 109/3/3 108/3/3 107/3/3
f 109/3/3 105/3/3 108/3/3
f 110/3/3 105/3/3 109/3/3
f 111/1/3 107/1/3 106/1/3
f 111/3/3 106/3/3 99/3/3
f 112/3/3 109/3/3 107/3/3
f 112/1/3 107/1/3 111/1/3
f 113/3/3 109/3/3 112/3/3
f 114/3/3 111/3/3 99/3/3
f 114/3/3 112/3/3 111/3/3
f 115/3/3 112/3/3 114/3/3
f 116/3/3 112/3/3 115/3/3
f 117/2/3 113/2/3 112/2/3
f 117/3/3 112/3/3 116/3/3
f 118/3/3 109/3/3 113/3/3
f 118/2/3 113/2/3 117/2/3
f 119/4/3 110/4/3 109/4/3
f 119/3/3 109/3/3 118/3/3
f 120/4/3 110/4/3 119/4/3
f 121/3/3 118/3/3 117/3/3
f 121/3/3 117/3/3 116/3/3
f 121/3/3 119/3/3 118/3/3
f 122/3/3 119/3/3 121/3/3
f 127/3/3 124/3/3 123/3/3
f 128/3/3 124/3/3 127/3/3
f 129/3/3 126/3/3 125/3/3
f 130/3/3 126/3/3 129/3/3
f 133/3/3 132/3/3 131/3/3
f 134/3/3 132/3/3 133/3/3
f 137/4/3 136/4/3 135/4/3
f 138/4/3 136/4/3 137/4/3
f 139/3/4 140/3/4 141/3/4
f 141/3/4 140/3/4 142/3/4
f 143/3/4 144/3/4 145/3/4
f 145/3/4 144/3/4 146/3/4
f 147/3/4 148/3/4 149/3/4
f 149/3/4 148/3/4 150/3/4
f 151/3/4 152/3/4 153/3/4
f 153/3/4 152/3/4 154/3/4
f 155/3/4 156/3/4 160/3/4
f 160/3/4 156/3/4 161/3/4
f 157/3/4 158/3/4 162/3/4
f 162/3/4 158/3/4 163/3/4
f 159/3/4 160/3/4 164/3/4
f 164/3/4 160/3/4 165/3/4
f 165/3/4 166/3/4 169/3/4
f 169/3/4 166/3/4 170/3/4
f 167/4/4 168/4/4 171/4/4
f 171/4/4 168/4/4 172/4/4
f 173/3/4 174/3/4 176/3/4
f 176/3/4 174/3/4 177/3/4
f 175/3/4 176/3/4 179/3/4
f 177/3/4 178/3/4 179/3/4
f 176/3/4 177/3/4 179/3/4
f 179/3/4 178/3/4 180/3/4
f 175/3/4 179/3/4 181/3/4
f 181/3/4 179/3/4 182/3/4
f 179/4/4 180/4/4 183/4/4
f 182/3/4 179/3/4 183/3/4
f 183/4/4 180/4/4 184/4/4
f 182/3/4 183/3/4 185/3/4
f 185/3/4 183/3/4 186/3/4
f 191/3/5 188/3/5 187/3/5
f 192/3/5 188/3/5 191/3/5
f 193/3/5 190/3/5 189/3/5
f 194/3/5 190/3/5 193/3/5
f 197/3/5 196/3/5 195/3/5
f 198/3/5 196/3/5 197/3/5
f 199/3/5 196/3/5 198/3/5
f 200/3/5 196/3/5 199/3/5
f 202/3/5 199/3/5 198/3/5
f 203/3/5 199/3/5 202/3/5
f 205/3/5 202/3/5 201/3/5
f 205/3/5 204/3/5 203/3/5
f 205/3/5 203/3/5 202/3/5
f 206/3/5 204/3/5 205/3/5
f 211/3/5 208/3/5 207/3/5
f 212/3/5 210/3/5 209/3/5
f 213/3/5 211/3/5 207/3/5
f 214/3/5 211/3/5 213/3/5
f 215/3/5 210/3/5 212/3/5
f 216/3/5 210/3/5 215/3/5
f 221/3/5 218/3/5 217/3/5
f 222/3/5 218/3/5 221/3/5
f 223/3/5 220/3/5 219/3/5
f 224/3/5 220/3/5 223/3/5
f 225/3/5 223/3/5 222/3/5
f 226/3/5 223/3/5 225/3/5
f 231/3/5 228/3/5 227/3/5
f 232/3/5 228/3/5 231/3/5
f 233/3/5 230/3/5 229/3/5
f 234/3/5 230/3/5 233/3/5
f 235/3/6 236/3/6 239/3/6
f 239/3/6 236/3/6 240/3/6
f 237/3/6 238/3/6 241/3/6
f 241/3/6 238/3/6 242/3/6
f 243/3/6 244/3/6 247/3/6
f 247/3/6 244/3/6 248/3/6
f 245/3/6 246/3/6 249/3/6
f 249/3/6 246/3/6 250/3/6
f 251/3/6 252/3/6 255/3/6
f 255/3/6 252/3/6 256/3/6
f 253/3/6 254/3/6 257/3/6
f 257/3/6 254/3/6 258/3/6
f 259/3/6 260/3/6 263/3/6
f 263/3/6 260/3/6 264/3/6
f 260/4/6 261/4/6 265/4/6
f 264/3/6 260/3/6 265/3/6
f 265/4/6 261/4/6 266/4/6
f 263/3/6 264/3/6 268/3/6
f 262/3/6 263/3/6 268/3/6
f 268/3/6 264/3/6 269/3/6
f 266/4/6 267/4/6 270/4/6
f 269/3/6 264/3/6 270/3/6
f 265/4/6 266/4/6 270/4/6
f 264/4/6 265/4/6 270/4/6
f 270/4/6 267/4/6 271/4/6
f 271/4/6 267/4/6 272/4/6
f 272/4/6 267/4/6 273/4/6
f 269/3/6 270/3/6 274/3/6
f 270/3/6 271/3/6 274/3/6
f 271/4/6 272/4/6 275/4/6
f 274/3/6 271/3/6 275/3/6
f 275/4/6 272/4/6 276/4/6
